<?xml version="1.0" encoding="utf-8"?>
<!-- Generator: Adobe Illustrator 14.0.0, SVG Export Plug-In . SVG Version: 6.00 Build 43363)  -->
<!DOCTYPE svg PUBLIC "-//W3C//DTD SVG 1.1//EN" "http://www.w3.org/Graphics/SVG/1.1/DTD/svg11.dtd">
<svg version="1.1" id="Layer_1" xmlns="http://www.w3.org/2000/svg" xmlns:xlink="http://www.w3.org/1999/xlink" x="0px" y="0px"
	 width="350px" height="200px" viewBox="0 0 350 200" enable-background="new 0 0 350 200" xml:space="preserve">
<path fill="none" stroke="#000000" stroke-width="1.4943" d="M220.643,26.469c0,0-0.14-4.863,5.59-4.863c5.726,0,10.209,0,10.209,0
	S235.693,7.66,255.867,7.66c20.173,0,21.171,20.422,21.171,20.422h-56.396V26.469z"/>
<rect x="139.312" y="42.231" fill="none" stroke="#000000" stroke-width="1.4943" width="81.331" height="80.693"/>
<path fill="none" stroke="#000000" stroke-width="1.4943" d="M170.319,130.69h55.289l14.196-49.312c0,0,3.361-17.185,22.788-17.185
	c36.236,0,30.634,73.221,30.634,73.221l-47.072-1.868l-2.614-8.966l-3.735,10.834c0,0-1.494,7.846-10.087,7.846s-59.398,0-59.398,0
	s-4.857-1.495-4.857-7.099S170.319,130.69,170.319,130.69z"/>
<path fill="none" stroke="#000000" stroke-width="1.4943" d="M234.946,30.945c0,0-4.108,22.415,21.294,22.415
	c25.403,0,21.175-22.356,21.175-22.356L234.946,30.945z"/>
<polygon fill="none" stroke="#000000" stroke-width="1.4943" points="247.214,140.955 239.003,195.845 282.52,195.845 
	292.232,143.104 "/>
<path fill="none" stroke="#000000" stroke-width="1.4943" d="M149.499,130.69h-25.176l-14.196-49.312
	c0,0-3.362-17.185-22.788-17.185c-36.235,0-30.633,73.221-30.633,73.221l47.071-1.868l2.615-8.966l3.736,10.834
	c0,0,1.495,7.846,10.087,7.846c8.592,0,29.285,0,29.285,0s4.856-1.495,4.856-7.099S149.499,130.69,149.499,130.69z"/>
<polygon fill="none" stroke="#000000" stroke-width="1.4943" points="103.145,140.955 110.927,195.845 67.411,195.845 
	57.699,143.536 "/>
<circle fill="none" stroke="#000000" stroke-width="1.4943" cx="93.741" cy="30.945" r="26.69"/>
</svg>
