<?xml version="1.0" encoding="utf-8"?>
<!-- Generator: Adobe Illustrator 14.0.0, SVG Export Plug-In . SVG Version: 6.00 Build 43363)  -->
<!DOCTYPE svg PUBLIC "-//W3C//DTD SVG 1.1//EN" "http://www.w3.org/Graphics/SVG/1.1/DTD/svg11.dtd">
<svg version="1.1" id="Layer_1" xmlns="http://www.w3.org/2000/svg" xmlns:xlink="http://www.w3.org/1999/xlink" x="0px" y="0px"
	 width="350px" height="200px" viewBox="0 0 350 200" enable-background="new 0 0 350 200" xml:space="preserve">
<g>
	<path fill="none" stroke="#000000" stroke-width="1.2322" stroke-miterlimit="10" d="M45.485,172.675V19.773
		c0-5.422,4.434-9.857,9.858-9.857h243.179c5.42,0,9.857,4.435,9.857,9.857v152.546"/>
</g>
<rect x="61.927" y="27.157" fill="none" stroke="#000000" stroke-width="1.2322" stroke-miterlimit="10" width="229.457" height="130.183"/>
<g>
	<path fill="none" stroke="#000000" stroke-width="1.2322" stroke-miterlimit="10" d="M341.018,184.583
		c0,2.705-2.218,4.929-4.928,4.929H13.91c-2.709,0-4.929-2.224-4.929-4.929v-6.863c0-2.716,2.219-4.93,4.929-4.93h322.176
		c2.71,0,4.928,2.214,4.928,4.93v6.863H341.018z"/>
</g>
<g>
	<path d="M182.032,122.987c0.953-1.352,2.161-2.334,3.625-2.95h-30.926c1.403,0.616,2.553,1.556,3.454,2.82
		c0.897,1.267,1.35,2.687,1.35,4.256c0,2.416-0.746,4.379-2.236,5.901c-1.487,1.515-3.441,2.271-5.855,2.271
		c-2.245,0-4.17-0.74-5.771-2.232c-1.6-1.487-2.402-3.413-2.402-5.767c0-1.689,0.45-3.162,1.348-4.429
		c0.9-1.265,2.077-2.204,3.54-2.82h-4.214v-6.825h46.01v-9.523h-51.066l-9.184-32.014l70.525-3.877l3.625-11.292
		c0.221-0.561,0.419-0.982,0.593-1.266c0.168-0.282,0.477-0.588,0.923-0.927c0.452-0.281,0.939-0.631,1.473-1.052
		c0.539-0.421,1.108-0.857,1.729-1.304c0.789-0.621,1.56-1.17,2.32-1.646c0.76-0.479,1.223-0.772,1.391-0.883l-0.674,0.167
		l0.674-0.337c0.279-0.11,0.684-0.029,1.224,0.256c0.528,0.281,1.021,0.587,1.473,0.926c0.505,0.11,0.798,0.349,0.885,0.714
		c0.081,0.366,0.125,0.775,0.125,1.221v1.182c0,0.336-0.101,0.703-0.293,1.097c-0.197,0.393-0.52,0.788-0.973,1.178
		c-0.164,0.17-0.448,0.409-0.842,0.714c-0.395,0.311-0.8,0.633-1.218,0.97c-0.425,0.339-0.828,0.676-1.223,1.011
		c-0.396,0.34-0.731,0.592-1.016,0.76l-13.482,41.794v18.958h-4.886c1.406,0.616,2.6,1.599,3.581,2.95
		c0.982,1.349,1.479,2.859,1.479,4.549c0,1.122-0.242,2.146-0.717,3.07c-0.477,0.93-1.094,1.748-1.854,2.446
		c-0.761,0.702-1.632,1.252-2.614,1.642c-0.985,0.395-1.978,0.591-2.988,0.591c-1.069,0-2.113-0.196-3.125-0.591
		c-1.005-0.39-1.896-0.925-2.646-1.599c-0.761-0.674-1.377-1.492-1.858-2.445c-0.476-0.953-0.712-1.992-0.712-3.114
		C180.603,125.847,181.073,124.336,182.032,122.987z M145.545,114.811v3.628h49.8v-17.61l13.731-42.554
		c0.173-0.111,0.477-0.337,0.929-0.676c0.449-0.335,0.916-0.7,1.392-1.093c0.477-0.39,0.925-0.772,1.348-1.139
		c0.419-0.365,0.718-0.63,0.881-0.798c0.511-0.337,0.76-0.677,0.76-1.013v-0.59v-0.592c0-0.222-0.028-0.335-0.081-0.335
		c-0.11-0.281-0.321-0.592-0.636-0.926c-0.308-0.337-0.52-0.477-0.63-0.421l-0.674,0.339c-0.058,0-0.323,0.178-0.8,0.544
		c-0.48,0.366-1.028,0.787-1.646,1.266c-0.615,0.477-1.251,0.984-1.896,1.513c-0.646,0.537-1.189,0.97-1.642,1.31
		c-0.28,0.222-0.492,0.421-0.631,0.592c-0.146,0.167-0.27,0.39-0.381,0.671l-3.956,12.469l-69.602,3.877l8.339,28.732h51.406v12.806
		H145.545z M137.036,77.146v-0.335c1.461-0.226,2.893-0.366,4.298-0.421c1.401-0.055,2.806-0.082,4.212-0.082v5.475h-7.162
		c-0.055,0-0.111-0.096-0.168-0.295c-0.058-0.195-0.113-0.35-0.168-0.46c-0.058-0.171-0.14-0.421-0.255-0.76
		c-0.111-0.337-0.224-0.701-0.335-1.098c-0.113-0.392-0.211-0.744-0.293-1.054c-0.086-0.306-0.127-0.544-0.127-0.715V77.146z
		 M141.416,78.076c-0.843,0-1.714,0.056-2.611,0.171c0.113,0.277,0.211,0.6,0.295,0.965c0.084,0.366,0.181,0.688,0.293,0.973h4.551
		v-2.193C143.103,78.047,142.26,78.076,141.416,78.076z M145.545,84.394v5.225h-4.972c-0.11-0.337-0.197-0.561-0.253-0.671
		c-0.058-0.171-0.154-0.465-0.293-0.888c-0.142-0.421-0.267-0.869-0.38-1.348c-0.113-0.477-0.238-0.938-0.38-1.391
		c-0.137-0.445-0.238-0.755-0.293-0.927H145.545L145.545,84.394z M139.478,80.351c0,0.055,0.029,0.116,0.087,0.166
		C139.507,80.517,139.478,80.466,139.478,80.351z M141.416,87.051c0.112,0.366,0.226,0.688,0.336,0.965h2.192v-2.019h-2.864
		C141.191,86.333,141.303,86.685,141.416,87.051z M141.247,92.314h4.298v5.901h-2.611L141.247,92.314z M143.945,95.77v-1.853h-0.589
		L143.945,95.77z M146.809,131.916c1.292,1.18,2.838,1.772,4.633,1.772c1.966,0,3.528-0.622,4.678-1.854
		c1.151-1.237,1.728-2.812,1.728-4.718c0-1.689-0.604-3.123-1.812-4.303c-1.208-1.179-2.709-1.771-4.507-1.771
		c-1.8,0-3.357,0.582-4.676,1.733c-1.321,1.15-1.981,2.651-1.981,4.51C144.871,129.192,145.516,130.736,146.809,131.916z
		 M148.241,76.053c0.171,0,0.479-0.012,0.926-0.042c0.45-0.026,0.929-0.055,1.435-0.086c0.505-0.029,0.968-0.05,1.389-0.084
		c0.423-0.026,0.717-0.039,0.886-0.039c0.113,0,0.279-0.017,0.507-0.043c0.222-0.029,0.364-0.041,0.421-0.041v6.064h-5.564V76.053z
		 M148.241,84.394h5.564v5.225h-5.564V84.394z M148.241,92.314h5.564v5.901h-5.564V92.314z M149.844,77.655v2.53h2.358v-2.698
		c-0.224,0-0.45,0.012-0.673,0.041c-0.224,0.026-0.45,0.043-0.674,0.043C150.628,77.626,150.292,77.655,149.844,77.655z
		 M149.844,88.016h2.358v-2.019h-2.358V88.016z M149.844,96.612h2.358v-2.695h-2.358V96.612z M162.483,81.782h-5.646v-5.98
		c0-0.055,0.25-0.128,0.755-0.211c0.508-0.082,0.9-0.128,1.182-0.128c0.168,0,0.421,0,0.761,0c0.387,0,0.77-0.012,1.133-0.043
		c0.366-0.024,0.717-0.043,1.054-0.043c0.337,0,0.59,0,0.761,0V81.782L162.483,81.782z M156.837,84.394h5.646v5.225h-5.646V84.394z
		 M156.837,92.314h5.646v5.901h-5.646V92.314z M158.563,76.686c-0.084-0.25-0.125-0.491-0.125-0.717v4.217h2.445v-3.119h-0.255
		h-1.853C158.719,77.066,158.647,76.936,158.563,76.686z M158.438,88.016h2.445v-2.019h-2.445V88.016L158.438,88.016z
		 M158.438,96.612h2.445v-2.695h-2.445V96.612L158.438,96.612z M165.092,75.126h5.646v6.656h-5.646V75.126z M165.092,84.394h5.646
		v5.225h-5.646V84.394z M165.092,92.314h5.646v5.901h-5.646V92.314z M166.695,80.185h2.443v-3.456h-2.443V80.185z M166.695,88.016
		h2.443v-2.019h-2.443V88.016z M166.695,96.612h2.443v-2.695h-2.443V96.612z M173.688,74.705c1.853-0.168,3.706-0.25,5.565-0.25
		v7.328h-5.565V74.705z M173.688,84.394h5.565v5.225h-5.565V84.394z M173.688,92.314h5.565v5.901h-5.565V92.314z M176.469,76.136
		c-0.393,0-0.788,0.032-1.18,0.087v3.962h2.361v-4.132C177.255,76.108,176.86,76.136,176.469,76.136z M175.289,88.016h2.361v-2.019
		h-2.361V88.016z M175.289,96.612h2.361v-2.695h-2.361V96.612z M187.596,81.782h-5.731v-7.328c0-0.055,0.139-0.115,0.418-0.168
		c0.284-0.058,0.505-0.115,0.678-0.171c0.165,0,0.464-0.012,0.882-0.043c0.424-0.027,0.886-0.039,1.391-0.039
		c0.453,0,0.91-0.017,1.391-0.045c0.477-0.027,0.8-0.043,0.973-0.043V81.782L187.596,81.782z M181.864,84.394h5.731v5.225h-5.731
		V84.394z M181.864,92.314h5.731v5.901h-5.731V92.314z M184.266,131.955c1.372,1.154,2.932,1.733,4.673,1.733
		c0.79,0,1.575-0.16,2.363-0.463c0.785-0.313,1.488-0.751,2.104-1.31c0.622-0.563,1.126-1.223,1.517-1.978
		c0.395-0.762,0.592-1.56,0.592-2.402c0-0.899-0.183-1.737-0.549-2.532c-0.366-0.784-0.855-1.473-1.473-2.064
		c-0.621-0.587-1.318-1.049-2.107-1.386c-0.784-0.337-1.604-0.511-2.446-0.511c-1.795,0-3.368,0.636-4.717,1.896
		c-1.348,1.267-2.021,2.797-2.021,4.597S182.889,130.805,184.266,131.955z M183.216,75.802h-0.256c-0.056,0-0.086,0.026-0.086,0.084
		h-0.081L183.216,75.802z M184.309,75.759c-0.283,0.027-0.534,0.043-0.76,0.043v4.383h2.357v-4.467h-0.674
		C184.896,75.718,184.588,75.73,184.309,75.759z M183.549,88.016h2.357v-2.019h-2.357V88.016z M183.549,96.612h2.357v-2.695h-2.357
		V96.612z M190.542,73.778c1.405-0.168,2.575-0.267,3.493-0.294c0.93-0.028,2.071-0.045,3.419-0.045h0.504
		c0.28,0,0.56,0.017,0.843,0.045c0.279,0.027,0.56,0.043,0.843,0.043h0.424l-2.613,8.254h-6.912V73.778L190.542,73.778z
		 M190.542,84.394h5.982c0,0.056-0.028,0.145-0.081,0.255c-0.058,0.167-0.145,0.46-0.256,0.884c-0.116,0.421-0.24,0.857-0.38,1.304
		c-0.139,0.453-0.284,0.874-0.424,1.268c-0.14,0.393-0.234,0.672-0.289,0.843c-0.058,0.11-0.114,0.25-0.173,0.417
		c-0.053,0.17-0.11,0.255-0.168,0.255h-4.212V84.394z M190.542,92.314h3.374c0,0.455-0.145,1.095-0.424,1.939
		c-0.115,0.285-0.24,0.662-0.379,1.139c-0.142,0.477-0.28,0.926-0.425,1.348c-0.139,0.421-0.323,0.915-0.544,1.475h-1.603V92.314
		L190.542,92.314z M194.754,75.085c-0.727,0.029-1.598,0.101-2.609,0.211v4.889h4.125l1.603-5.144h-0.418
		C196.386,75.042,195.484,75.058,194.754,75.085z M194.335,85.997h-2.19v2.019h1.599c0.11-0.276,0.197-0.573,0.255-0.881
		c0.053-0.308,0.14-0.577,0.25-0.801v0.168C194.252,86.276,194.277,86.107,194.335,85.997z M192.818,93.917h-0.674v2.695
		 M193.661,88.355c-0.059,0.055-0.087,0.11-0.087,0.17v0.082C193.574,88.497,193.603,88.411,193.661,88.355z"/>
</g>
</svg>
