<?xml version="1.0" encoding="utf-8"?>
<!-- Generator: Adobe Illustrator 14.0.0, SVG Export Plug-In . SVG Version: 6.00 Build 43363)  -->
<!DOCTYPE svg PUBLIC "-//W3C//DTD SVG 1.1//EN" "http://www.w3.org/Graphics/SVG/1.1/DTD/svg11.dtd">
<svg version="1.1" id="Layer_1" xmlns="http://www.w3.org/2000/svg" xmlns:xlink="http://www.w3.org/1999/xlink" x="0px" y="0px"
	 width="350px" height="200px" viewBox="0 0 350 200" enable-background="new 0 0 350 200" xml:space="preserve">
<path fill="none" stroke="#000000" stroke-width="1.3" d="M300.618,156.526h-7.966V111.98c0-5.212-1.573-10.325-4.49-14.652
	l-19.963-29.567c-4.885-7.211-13.014-11.538-21.733-11.538h-30.943c-3.638,0-6.556,2.95-6.556,6.556v93.748h-50.67
	c4.819,4.163,8.129,9.965,9.08,16.521H220.8c1.901-13.013,13.112-23.077,26.65-23.077s24.716,10.064,26.616,23.077h26.552
	c1.803,0,3.277-1.476,3.277-3.277v-9.966C303.896,158.003,302.421,156.526,300.618,156.526z"/>
<path fill="none" stroke="#000000" stroke-width="1.3" d="M267.97,103.228h-40.843c-1.804,0-3.278-1.441-3.278-3.277V77.3
	c0-1.803,1.475-3.278,3.278-3.278h24.88c1.081,0,2.064,0.524,2.687,1.377l15.963,22.683
	C272.165,100.246,270.624,103.228,267.97,103.228z"/>
<path fill="none" stroke="#000000" stroke-width="1.3" d="M247.45,156.526c-11.277,0-20.389,9.146-20.389,20.422
	c0,11.243,9.111,20.389,20.389,20.389c11.242,0,20.389-9.146,20.389-20.389C267.839,165.673,258.692,156.526,247.45,156.526z"/>
<path fill="none" stroke="#000000" stroke-width="1.3" d="M247.45,187.145c-5.64,0-10.195-4.59-10.195-10.195
	c0-5.638,4.556-10.195,10.195-10.195c5.637,0,10.193,4.558,10.193,10.195C257.644,182.555,253.087,187.145,247.45,187.145z"/>
<path fill="none" stroke="#000000" stroke-width="1.3" d="M77.463,156.526c-1.803,0-3.278,1.477-3.278,3.279v9.966
	c0,1.802,1.475,3.277,3.278,3.277h36.647c0.951-6.557,4.261-12.358,9.047-16.521L77.463,156.526L77.463,156.526z"/>
<path fill="none" stroke="#000000" stroke-width="1.3" d="M140.727,156.526c-11.243,0-20.389,9.146-20.389,20.422
	c0,11.243,9.146,20.389,20.389,20.389c11.276,0,20.389-9.146,20.389-20.389C161.116,165.673,152.003,156.526,140.727,156.526z"/>
<path fill="none" stroke="#000000" stroke-width="1.3" d="M140.727,187.145c-5.638,0-10.194-4.59-10.194-10.195
	c0-5.638,4.556-10.195,10.194-10.195c5.638,0,10.195,4.558,10.195,10.195C150.922,182.555,146.365,187.145,140.727,187.145z"/>
<path fill="none" stroke="#000000" stroke-width="1.3" d="M189.758,35.899h-37.984c1.869,5.54,2.852,11.473,2.852,17.603
	c0,30.944-25.174,56.118-56.118,56.118c-5.638,0-11.113-0.852-16.259-2.393v36.222c0,1.803,1.475,3.278,3.278,3.278h110.787
	c1.803,0,3.277-1.476,3.277-3.278V45.734C199.592,40.292,195.198,35.899,189.758,35.899z"/>
<circle fill="none" stroke="#000000" stroke-width="1.3" cx="98.515" cy="53.492" r="49.56"/>
<circle fill="none" stroke="#000000" stroke-width="1.3" cx="98.515" cy="53.492" r="38.282"/>
<path fill="none" stroke="#000000" stroke-width="1.3" d="M113.136,61.577c-0.422,0-0.854-0.055-1.284-0.17l-15.974-4.305
	c-2.144-0.58-3.636-2.526-3.636-4.748V27.77c0-2.714,2.203-4.917,4.917-4.917c2.714,0,4.917,2.203,4.917,4.917v20.817l12.336,3.326
	c2.622,0.707,4.174,3.406,3.467,6.027C117.288,60.132,115.303,61.577,113.136,61.577z"/>
</svg>
